<svg xmlns="http://www.w3.org/2000/svg" xmlns:bx="https://boxy-svg.com" xmlns:xlink="http://www.w3.org/1999/xlink" viewBox="0 0 2000 600"><defs><linearGradient xlink:href="#a" id="p" x1="507.898" x2="507.898" y1="314.6" y2="673.3" gradientTransform="matrix(-.38 -.92 1.64 -.68 -104.3598 1296.0242)" gradientUnits="userSpaceOnUse"/><linearGradient id="a"><stop offset="0" style="stop-color:#6e29ff"/><stop offset="1" style="stop-color:#ff7254"/></linearGradient><linearGradient xlink:href="#b" id="q" x1="508.784" x2="508.784" y1="267.8" y2="730.462" gradientTransform="matrix(.34 -.94 .28 .1 132.0883 1135.7357)" gradientUnits="userSpaceOnUse"/><linearGradient id="b"><stop offset="0" style="stop-color:#5e27f5"/><stop offset="1" style="stop-color:#972bd5"/></linearGradient><linearGradient xlink:href="#c" id="r" x1="508.784" x2="508.784" y1="267.8" y2="730.448" gradientTransform="matrix(.25 -.97 .33 .09 217.032 1146.4634)" gradientUnits="userSpaceOnUse"/><linearGradient id="c"><stop offset="0" style="stop-color:#9044ff"/><stop offset="1" style="stop-color:#ff43b3"/></linearGradient><linearGradient xlink:href="#d" id="s" x1="508.784" x2="508.784" y1="267.8" y2="709.274" gradientTransform="matrix(.16 -.99 .4 .06 266.1028 1152.3955)" gradientUnits="userSpaceOnUse"/><linearGradient id="d"><stop offset="0" style="stop-color:#ff5188"/><stop offset="1" style="stop-color:#ff655c"/></linearGradient><linearGradient xlink:href="#e" id="t" x1="508.784" x2="508.784" y1="267.8" y2="689.473" gradientTransform="matrix(.22 -.98 .8 .18 -12.8003 1056.5828)" gradientUnits="userSpaceOnUse"/><linearGradient id="e"><stop offset="0" style="stop-color:#8726f8"/><stop offset="1" style="stop-color:#ff4791"/></linearGradient><linearGradient xlink:href="#f" id="u" x1="508.784" x2="508.784" y1="267.8" y2="678.326" gradientTransform="matrix(.23 -.97 .88 .21 -53.1157 1023.9513)" gradientUnits="userSpaceOnUse"/><linearGradient id="f"><stop offset="0" style="stop-color:#7836ff"/><stop offset=".493" style="stop-color:#ff4a7b"/><stop offset="1" style="stop-color:#ff5164"/></linearGradient><linearGradient xlink:href="#g" id="v" x1="508.784" x2="508.784" y1="267.8" y2="668.15" gradientTransform="rotate(-74 584.721 554.4303)" gradientUnits="userSpaceOnUse"/><linearGradient id="g"><stop offset="0" style="stop-color:#7427ff"/><stop offset=".439" style="stop-color:#ed40b0"/><stop offset="1" style="stop-color:#ff5a60"/></linearGradient><linearGradient xlink:href="#h" id="w" x1="508.784" x2="508.784" y1="267.8" y2="647.444" gradientTransform="matrix(.27 -.96 1.1 .31 -151.5703 920.7773)" gradientUnits="userSpaceOnUse"/><linearGradient id="h"><stop offset="0" style="stop-color:#944bff"/><stop offset=".546" style="stop-color:#ff5184"/><stop offset="1" style="stop-color:#ff805f"/></linearGradient><linearGradient xlink:href="#a" id="x" x1="508.784" x2="508.784" y1="267.8" y2="619.186" gradientTransform="matrix(.23 -.97 1.2 .29 -153.3119 915.7122)" gradientUnits="userSpaceOnUse"/><linearGradient xlink:href="#i" id="y" x1="510.948" x2="510.948" y1="267.8" y2="572.216" gradientTransform="matrix(.23 -.97 1.4 .33 -198.5415 863.1834)" gradientUnits="userSpaceOnUse"/><linearGradient id="i"><stop offset="0" style="stop-color:#b444ff"/><stop offset=".469" style="stop-color:#ff4e7b"/><stop offset="1" style="stop-color:#ff9560"/></linearGradient><linearGradient xlink:href="#j" id="z" x1="522.855" x2="522.855" y1="267.8" y2="534.662" gradientTransform="matrix(.38 -.92 1.17 .48 -185.9872 734.7662)" gradientUnits="userSpaceOnUse"/><linearGradient id="j"><stop offset="0" style="stop-color:#f245bf"/><stop offset=".51" style="stop-color:#ff5464"/><stop offset="1" style="stop-color:#ff825e"/></linearGradient><linearGradient xlink:href="#k" id="A" x1="530.052" x2="530.052" y1="267.8" y2="496.728" gradientTransform="matrix(.2 -.98 1.68 .36 -218.3757 781.4852)" gradientUnits="userSpaceOnUse"/><linearGradient id="k"><stop offset="0" style="stop-color:#ff4ab8"/><stop offset=".515" style="stop-color:#ff7a68"/><stop offset="1" style="stop-color:#ffc794"/></linearGradient><linearGradient xlink:href="#l" id="B" x1="531.693" x2="531.693" y1="267.8" y2="441.189" gradientTransform="matrix(.14 -.99 2.05 .29 -273.0113 792.2853)" gradientUnits="userSpaceOnUse"/><linearGradient id="l"><stop offset="0" style="stop-color:#ff488b"/><stop offset=".494" style="stop-color:#ff7156"/><stop offset="1" style="stop-color:#ffcc9b"/></linearGradient><linearGradient xlink:href="#m" id="C" x1="531.003" x2="531.003" y1="267.8" y2="404.535" gradientTransform="matrix(.15 -.99 2.26 .34 -309.384 757.4253)" gradientUnits="userSpaceOnUse"/><linearGradient id="m"><stop offset="0" style="stop-color:#ff5d74"/><stop offset=".536" style="stop-color:#ff8d6e"/><stop offset="1" style="stop-color:#ffc98b"/></linearGradient><linearGradient xlink:href="#n" id="D" x1="529.635" x2="529.635" y1="267.8" y2="368.767" gradientTransform="matrix(.33 -.94 2.6 .92 -461.8623 509.8097)" gradientUnits="userSpaceOnUse"/><linearGradient id="n"><stop offset="0" style="stop-color:#ff507a"/><stop offset="1" style="stop-color:#ffc196"/></linearGradient><linearGradient xlink:href="#o" id="E" x1="535.133" x2="535.133" y1="267.826" y2="336.631" gradientTransform="matrix(.2 -.98 2.63 .52 -352.9097 670.1355)" gradientUnits="userSpaceOnUse"/><linearGradient id="o"><stop offset="0" style="stop-color:#ff6f60"/><stop offset="1" style="stop-color:#ffbd8f"/></linearGradient></defs><g fill="none" fill-rule="evenodd"><circle cx="673" cy="214" r="11" style="fill:#ff836c"/><circle cx="1266" cy="444" r="11" style="fill:#ff836c"/><circle cx="1357" cy="134" r="11" style="fill:#4d45ff"/><circle cx="586" cy="349" r="11" style="fill:#ff3653"/><path d="M1484.651 231.629c-.792 65.73-1.435 66.505-55.971 67.46 54.536.954 55.179 1.729 55.971 67.46.793-65.731 1.435-66.506 55.972-67.46-54.537-.955-55.179-1.73-55.972-67.46" style="fill-opacity:1;fill:#ff3653"/><path d="M501.651 83.547c-.616 50.988-1.114 51.592-43.419 52.331 42.305.74 42.803 1.34 43.419 52.329.613-50.989 1.112-51.589 43.418-52.329-42.306-.739-42.805-1.343-43.418-52.331" style="fill-opacity:1;fill:#4e34ff"/></g><g bx:origin="0.523882 0.551883"><path d="M761.899 493.161v-.001c-49.673 42.992-121.275 86.194-205.107 120.686-170.282 70.06-329.701 78.95-368.126 22.69.108.158.217.316.327.473-2.122-3.034-3.888-6.259-5.282-9.676-14.847-36.408 15.73-87.079 76.03-137.567a255.52 255.52 0 0 0-.206 10.269c0 21.43 2.683 42.234 7.732 62.093-8.999 14.573-11.901 27.725-7.517 38.476 4.333 10.625 15.376 17.906 31.65 21.979v.001c49.345 12.348 146.778-4.805 251.049-47.706 102.489-42.167 182.896-97.408 210.817-140.658 5.1 18.848 8.061 38.574 8.607 58.903l.024-.021c-.281-10.379-6.122-49.676-8.62-58.9 9.845-15.257 13.158-29.021 8.602-40.193-4.659-11.425-17.078-18.984-35.415-22.845-12.222-20.413-27.259-38.946-44.576-55.064 71.241-5.919 125.014 5.644 145.244 35.268 1.976 2.894 3.632 5.96 4.953 9.2 14.36 35.212-13.771 83.766-70.186 132.593ZM327.835 672.225c-8.94-9.491-17.15-19.677-24.54-30.47a252.4171 252.4171 0 0 0 24.531 30.471c.003-.001.006-.001.009-.001Z" style="fill:url(#p)" transform="matrix(.94 0 0 .94 517.2392 -167.9203)"/><path d="M510.131 730.462c-50.632 0-97.465-16.266-135.558-43.858 56.359-8.536 120.781-26.509 186.839-53.687 69.303-28.514 130.247-62.981 177.355-98.36-17.05 110.944-112.921 195.905-228.636 195.905ZM278.8 499.131C278.8 371.37 382.37 267.8 510.131 267.8c104.688 0 193.134 69.54 221.665 164.947-35.818 39.899-108.119 86.327-197.044 122.914-90.727 37.329-176.278 55.164-229.478 51.031-16.906-32.133-26.474-68.73-26.474-107.561Z" style="fill:url(#q)" transform="matrix(.94 0 0 .94 517.2392 -167.9203)"/><path d="M561.412 632.917c69.303-28.514 130.247-62.981 177.355-98.36-16.924 110.121-111.504 194.644-226.065 195.891-34.641-6.179-66.273-24.076-87.929-53.482 43.154-9.935 89.479-24.646 136.639-44.049ZM278.8 499.131C278.8 371.37 382.37 267.8 510.131 267.8c104.688 0 193.134 69.54 221.665 164.947-35.818 39.899-108.119 86.327-197.044 122.914-90.727 37.329-176.278 55.164-229.478 51.031-16.906-32.133-26.474-68.73-26.474-107.561Z" style="fill:url(#r)" transform="matrix(.94 0 0 .94 517.2392 -167.9203)"/><path d="M561.412 632.917c69.303-28.514 130.247-62.981 177.355-98.36-11.801 76.791-61.365 141.134-129.133 173.471-4.342-1.781-8.703-3.167-13.142-3.326-36.312-1.303-59.29 11.517-96.824-.868-18.898-6.235-31.309-21.798-43.712-34.735 33.974-9.304 69.472-21.377 105.456-36.182ZM278.8 499.131C278.8 371.37 382.37 267.8 510.131 267.8c104.688 0 193.134 69.54 221.665 164.947-35.818 39.899-108.119 86.327-197.044 122.914-90.727 37.329-176.278 55.164-229.478 51.031-16.906-32.133-26.474-68.73-26.474-107.561Z" style="fill:url(#s)" transform="matrix(.94 0 0 .94 517.2392 -167.9203)"/><path d="M561.412 632.917c69.303-28.514 130.247-62.981 177.355-98.36-9.655 62.823-44.583 117.314-94.076 152.765-11.869-4.071-25.109-5.872-31.808-5.872-21.218 0-49.043 7.259-70.673 7.973-26.691.882-48.898-9.909-68.065-25.528 28.374-8.462 57.656-18.795 87.267-30.978ZM278.8 499.131C278.8 371.37 382.37 267.8 510.131 267.8c104.688 0 193.134 69.54 221.665 164.947-35.818 39.899-108.119 86.327-197.044 122.914-90.727 37.329-176.278 55.164-229.478 51.031-16.906-32.133-26.474-68.73-26.474-107.561Z" style="fill:url(#t)" transform="matrix(.94 0 0 .94 517.2392 -167.9203)"/><path d="M561.412 632.917c69.303-28.514 130.247-62.981 177.355-98.36-8.872 57.727-39.083 108.42-82.326 143.769-1.284-.589-2.607-1.181-3.974-1.782-35.204-15.474-71.624 1.573-109.692-1.244-8.573-.634-37.607-10.875-46.547-18.312 21.389-6.998 43.196-15.024 65.184-24.071ZM278.8 499.131C278.8 371.37 382.37 267.8 510.131 267.8c104.688 0 193.134 69.54 221.665 164.947-35.818 39.899-108.119 86.327-197.044 122.914-71.13 29.266-139.078 46.55-190.75 50.659-13.482-2.162-27.732-3.033-40.654-3.371-15.705-31.22-24.548-66.487-24.548-103.818Z" style="fill:url(#u)" transform="matrix(.94 0 0 .94 517.2392 -167.9203)"/><path d="M561.412 632.917c69.303-28.514 130.247-62.981 177.355-98.36-8.053 52.398-33.687 99-70.69 133.593-4.213-2.225-8.459-4.63-12.947-7.578-18.762-12.322-50.48-1.589-79.228.1-15.41.905-36.762-3.239-50.735-9.503-1.504-.674-2.961-1.57-4.387-2.604 13.437-4.823 27-10.039 40.632-15.648ZM278.8 499.131C278.8 371.37 382.37 267.8 510.131 267.8c104.688 0 193.134 69.54 221.665 164.947-35.818 39.899-108.119 86.327-197.044 122.914-44.445 18.287-87.648 31.895-126.414 40.534-9.464-4.826-19.091-8.858-27.886-10.813-27.784-6.177-68.361-2.644-92.88-22.935-5.714-20.122-8.772-41.362-8.772-63.316Z" style="fill:url(#v)" transform="matrix(.94 0 0 .94 517.2392 -167.9203)"/><path d="M738.767 534.557c-6.541 42.563-24.684 81.302-51.097 112.887-11.712-7.637-23.603-14.627-39.136-16.655-25.238-3.294-47.014 5.23-72.45 2.287-3.077-.356-6.784-1.002-10.735-1.789 67.674-28.193 127.204-62.022 173.418-96.73ZM278.8 499.131C278.8 371.37 382.37 267.8 510.131 267.8c104.688 0 193.134 69.54 221.665 164.947-35.818 39.899-108.119 86.327-197.044 122.914-34.027 14-67.326 25.258-98.463 33.644-11.292-8.326-22.658-16.378-35.257-20.694-20.722-7.098-56.021 2.625-73.81-5.3-14.345-6.391-20.767-14.787-32.746-25.158-2.698-2.335-8.255-7.461-14.107-11.934-1.036-8.886-1.569-17.925-1.569-27.088Z" style="fill:url(#w)" transform="matrix(.94 0 0 .94 517.2392 -167.9203)"/><path d="M738.767 534.557c-4.702 30.598-15.4 59.22-30.857 84.629-9.82-6.915-19.93-13.298-32.155-14.463-17.838-1.699-34.544-1.471-50.731-.757 43.176-21.652 81.667-45.319 113.743-69.409ZM278.8 499.131C278.8 371.37 382.37 267.8 510.131 267.8c104.688 0 193.134 69.54 221.665 164.947-35.818 39.899-108.119 86.327-197.044 122.914-21.883 9.003-43.464 16.873-64.363 23.574-5.007-3.001-10.077-6.18-15.146-9.421-6.737-4.308-26.492-17.864-34.757-19.26-26.181-4.421-43.331-.484-69.821-1.814-7.945-.399-21.282-3.889-26.855-5.947-15.641-5.777-28.153-25.126-44.839-34.682a234.841 234.841 0 0 1-.171-8.98Z" style="fill:url(#x)" transform="matrix(.94 0 0 .94 517.2392 -167.9203)"/><path d="M738.767 534.557c-1.988 12.938-5.048 25.522-9.087 37.659-10.84-3.956-22.591-6.581-34.559-7.67 15.593-9.844 30.184-19.879 43.646-29.989ZM510.131 267.8c104.688 0 193.134 69.54 221.665 164.947-35.818 39.899-108.119 86.327-197.044 122.914-10.274 4.227-20.482 8.204-30.583 11.928-38.685-14.691-71.898-37.185-100.341-48.711-23.05-9.34-56.743-4.321-79.435-12.442-14.284-5.112-22.333-20.655-31.619-31.995-2.746-3.353-6.2-11.073-9.645-20.079C303.98 348.026 397.686 267.8 510.131 267.8Z" style="fill:url(#y)" transform="matrix(.94 0 0 .94 517.2392 -167.9203)"/><path d="M510.131 267.8c104.688 0 193.134 69.54 221.665 164.947-29.256 32.589-82.852 69.535-149.966 101.915-24.863-.96-50.63-4.114-64.626-14.352-23.31-17.052-47.04-66.212-74.848-77.978-25.7-10.874-48.807-8.859-75.273-13.416-19.972-3.439-40.7-29.962-53.17-52.369C354.801 311.235 427.393 267.8 510.131 267.8Z" style="fill:url(#z)" transform="matrix(.94 0 0 .94 517.2392 -167.9203)"/><path d="M510.131 267.8c104.688 0 193.134 69.54 221.665 164.947-12.443 13.861-29.289 28.51-49.706 43.26-20.009 8.429-41.634 14.731-62.686 18.72-19.189 3.636-49.558 2.412-67.84-4.458-20.736-7.792-36.651-20.562-51.984-39.858-8.81-11.087-17.398-30.233-32.617-36.254-34.013-13.456-77.842 7.936-109.427-12.321-10.162-6.517-21.291-28.318-29.228-45.741 42.359-53.771 108.059-88.295 181.823-88.295Z" style="fill:url(#A)" transform="matrix(.94 0 0 .94 517.2392 -167.9203)"/><path d="M510.131 267.8c91.979 0 171.42 53.681 208.703 131.421-46.472 29.222-118.594 56.139-155.086 33.571-20.239-12.517-38.499-39.923-59.827-51.022-15.975-8.313-25.154-10.329-43.052-12.321-24.882-2.769-59.017 10.598-82.408 1.673-12.163-4.641-24.214-20.351-33.909-33.539C386.563 294.53 445.225 267.8 510.131 267.8Z" style="fill:url(#B)" transform="matrix(.94 0 0 .94 517.2392 -167.9203)"/><path d="M510.131 267.8c80.728 0 151.797 41.351 193.183 104.027-21.309 13.227-48.148 23.462-67.43 28.011-20.292 4.786-44.495 5.89-60.68 3.424-36.669-5.587-62.268-40.122-88.862-44.848-17.85-3.172-33.07.964-51.123 1.729-7.101.302-19.359-.723-28.539-3.474-9.676-2.899-20.236-5.212-28.362-12.998-3.138-3.007-11.948-11.762-19.626-19.417 40.579-35.171 93.523-56.454 151.439-56.454Z" style="fill:url(#C)" transform="matrix(.94 0 0 .94 517.2392 -167.9203)"/><path d="M677.836 344.634c-24.301 13.367-58.07 18.933-86.838 23.506-32.926 5.234-60.801-23.73-89.556-33.184-31.551-10.373-66.543 8.39-97.481-3.839-9.265-3.662-18.156-13.17-25.42-22.27 37.356-25.882 82.702-41.047 131.59-41.047 67.534 0 128.308 28.939 170.599 75.092-.966.63-1.932 1.213-2.894 1.742Z" style="stroke-width:3px;fill:url(#D)" transform="matrix(.94 0 0 .94 517.2392 -167.9203)"/><path d="M510.118 267.826c55.376 0 106.208 19.457 146.031 51.908-29.406 17.562-72.4 20.903-102.503 12.483-9.632-2.694-28.716-17.577-39.495-20.207-28.451-6.941-51.343-4.964-77.129-11.392-5.007-1.248-14.885-6.854-22.904-11.994 29.243-13.356 61.752-20.798 96-20.798Z" style="fill:url(#E)" transform="matrix(.94 0 0 .94 517.2392 -167.9203)"/></g></svg>