<?xml version="1.0" encoding="utf-8"?>
<svg width="2000px" height="600px" viewBox="0 0 2000 600" version="1.1" xmlns="http://www.w3.org/2000/svg">
  <title>Orbit</title>
  <desc>Created with Sketch.</desc>
  <g id="Orbit" stroke="none" stroke-width="1" fill="none" fill-rule="evenodd">
    <circle id="Oval" fill="#33DECB" cx="501.5" cy="136.5" r="21.5"/>
    <circle id="Oval" fill="#33DECB" cx="1483.5" cy="299.5" r="21.5"/>
    <circle id="Oval" fill="#33DECB" cx="673" cy="214" r="11"/>
    <circle id="Oval" fill="#33DECB" cx="1266" cy="444" r="11"/>
    <circle id="Oval" fill="#33DECB" cx="1357" cy="134" r="11"/>
    <circle id="Oval" fill="#33DECB" cx="586" cy="349" r="11"/>
  </g>
  <g id="#33de84ff" transform="matrix(1, 0, 0, 1, 0.231883, -0.063138)">
    <path fill="#33de84" opacity="1.00" d=" M 1031.29 82.16 C 1035.10 80.17 1039.32 82.83 1040.41 86.69 C 1037.59 107.27 1034.32 127.95 1031.26 148.56 C 1082.93 154.99 1131.07 184.74 1159.68 228.32 C 1163.11 234.09 1167.86 239.11 1170.20 245.50 C 1143.42 263.18 1114.82 277.92 1085.99 291.93 C 1042.65 312.60 998.11 330.70 952.90 346.85 C 912.54 360.56 871.76 374.22 829.56 380.84 C 827.32 375.13 826.84 369.00 825.96 363.00 C 817.28 318.39 826.96 270.74 851.55 232.62 C 855.44 226.10 860.66 220.53 864.65 214.09 C 848.95 201.90 833.51 189.39 817.89 177.11 C 813.51 174.45 814.46 166.67 819.62 165.60 C 823.42 164.63 826.18 168.10 828.94 170.08 C 843.66 181.76 858.26 193.59 873.14 205.07 C 910.93 166.45 965.32 145.07 1019.27 147.43 C 1021.31 129.21 1024.70 111.18 1027.18 93.01 C 1027.76 89.23 1027.30 84.22 1031.29 82.16 M 1053.43 206.58 C 1048.36 207.61 1043.17 210.17 1040.96 215.14 C 1035.06 224.40 1043.53 237.61 1054.08 237.62 C 1062.74 238.07 1070.67 229.72 1069.66 221.06 C 1069.59 212.73 1061.41 206.28 1053.43 206.58 M 895.44 268.62 C 885.89 270.33 879.17 281.93 884.34 290.64 C 888.80 301.82 906.43 302.24 911.37 291.24 C 918.32 280.89 907.20 266.16 895.44 268.62 Z"/>
    <path fill="#33de84" opacity="1.00" d=" M 1145.18 184.70 C 1187.14 174.51 1229.86 163.57 1273.39 165.49 C 1287.87 166.89 1304.65 170.95 1312.26 184.70 C 1319.37 196.48 1315.49 211.39 1307.91 221.93 C 1297.24 237.42 1282.36 249.32 1267.49 260.56 C 1243.29 278.11 1217.59 293.45 1191.41 307.84 C 1193.20 329.11 1193.83 350.89 1188.83 371.79 C 1178.31 423.66 1143.96 470.17 1097.40 495.38 C 1057.26 517.77 1008.56 524.41 963.99 513.06 C 931.49 505.13 901.29 488.10 877.58 464.52 C 907.76 455.51 938.08 446.76 967.66 435.84 C 974.04 433.72 982.32 431.78 984.54 424.46 C 988.80 415.08 978.98 403.72 969.11 406.18 C 902.18 429.94 833.62 450.59 763.06 459.90 C 744.74 461.11 725.72 462.92 707.96 457.08 C 695.45 453.68 684.45 442.47 684.08 429.08 C 683.39 411.54 696.45 397.59 708.01 385.98 C 736.89 359.81 770.60 339.61 804.63 320.90 C 803.70 334.01 803.33 347.19 804.41 360.30 C 779.53 375.20 754.47 390.36 732.95 409.98 C 728.42 414.68 723.18 418.94 720.17 424.85 C 729.56 427.07 739.24 426.94 748.83 426.50 C 811.25 420.57 871.61 402.23 930.99 382.81 C 1012.65 354.78 1092.71 321.58 1168.92 280.88 C 1199.86 263.97 1230.57 246.23 1258.18 224.17 C 1266.11 217.33 1274.26 210.39 1280.00 201.52 C 1269.83 199.77 1259.46 198.75 1249.21 200.43 C 1223.42 201.37 1198.36 208.07 1173.16 212.80 C 1163.95 203.46 1155.38 193.17 1145.18 184.70 Z"/>
  </g>
</svg>