<?xml version="1.0" encoding="UTF-8"?>
<svg width="633px" height="438px" viewBox="0 0 633 438" version="1.1" xmlns="http://www.w3.org/2000/svg" xmlns:xlink="http://www.w3.org/1999/xlink">
    <title>#33de84ff</title>
    <g id="Page-1" stroke="none" stroke-width="1" fill="none" fill-rule="evenodd">
        <g id="#33de84ff" transform="translate(0.285668, 0.419522)" fill="#33DE84" fill-rule="nonzero">
            <path d="M347.236215,0.67733975 C351.046215,-1.31266025 355.266215,1.34733975 356.356215,5.20733975 C353.536215,25.7873398 350.266215,46.4673398 347.206215,67.0773398 C398.876215,73.5073398 447.016215,103.25734 475.626215,146.83734 C479.056215,152.60734 483.806215,157.62734 486.146215,164.01734 C459.366215,181.69734 430.766215,196.43734 401.936215,210.44734 C358.596215,231.11734 314.056215,249.21734 268.846215,265.36734 C228.486215,279.07734 187.706215,292.73734 145.506215,299.35734 C143.266215,293.64734 142.786215,287.51734 141.906215,281.51734 C133.226215,236.90734 142.906215,189.25734 167.496215,151.13734 C171.386215,144.61734 176.606215,139.04734 180.596215,132.60734 C164.896215,120.41734 149.456215,107.90734 133.836215,95.6273398 C129.456215,92.9673398 130.406215,85.1873398 135.566215,84.1173398 C139.366215,83.1473398 142.126215,86.6173398 144.886215,88.5973398 C159.606215,100.27734 174.206215,112.10734 189.086215,123.58734 C226.876215,84.9673398 281.266215,63.5873398 335.216215,65.9473398 C337.256215,47.7273398 340.646215,29.6973398 343.126215,11.5273398 C343.706215,7.74733975 343.246215,2.73733975 347.236215,0.67733975 M369.376215,125.09734 C364.306215,126.12734 359.116215,128.68734 356.906215,133.65734 C351.006215,142.91734 359.476215,156.12734 370.026215,156.13734 C378.686215,156.58734 386.616215,148.23734 385.606215,139.57734 C385.536215,131.24734 377.356215,124.79734 369.376215,125.09734 M211.386215,187.13734 C201.836215,188.84734 195.116215,200.44734 200.286215,209.15734 C204.746215,220.33734 222.376215,220.75734 227.316215,209.75734 C234.266215,199.40734 223.146215,184.67734 211.386215,187.13734 Z" id="Shape"></path>
            <path d="M461.126215,103.21734 C503.086215,93.0273398 545.806215,82.0873398 589.336215,84.0073398 C603.816215,85.4073398 620.596215,89.4673398 628.206215,103.21734 C635.316215,114.99734 631.436215,129.90734 623.856215,140.44734 C613.186215,155.93734 598.306215,167.83734 583.436215,179.07734 C559.236215,196.62734 533.536215,211.96734 507.356215,226.35734 C509.146215,247.62734 509.776215,269.40734 504.776215,290.30734 C494.256215,342.17734 459.906215,388.68734 413.346215,413.89734 C373.206215,436.28734 324.506215,442.92734 279.936215,431.57734 C247.436215,423.64734 217.236215,406.61734 193.526215,383.03734 C223.706215,374.02734 254.026215,365.27734 283.606215,354.35734 C289.986215,352.23734 298.266215,350.29734 300.486215,342.97734 C304.746215,333.59734 294.926215,322.23734 285.056215,324.69734 C218.126215,348.45734 149.566215,369.10734 79.0062152,378.41734 C60.6862152,379.62734 41.6662152,381.43734 23.9062152,375.59734 C11.3962152,372.19734 0.396215153,360.98734 0.0262151533,347.59734 C-0.663784847,330.05734 12.3962152,316.10734 23.9562152,304.49734 C52.8362152,278.32734 86.5462152,258.12734 120.576215,239.41734 C119.646215,252.52734 119.276215,265.70734 120.356215,278.81734 C95.4762152,293.71734 70.4162152,308.87734 48.8962152,328.49734 C44.3662152,333.19734 39.1262152,337.45734 36.1162152,343.36734 C45.5062152,345.58734 55.1862152,345.45734 64.7762152,345.01734 C127.196215,339.08734 187.556215,320.74734 246.936215,301.32734 C328.596215,273.29734 408.656215,240.09734 484.866215,199.39734 C515.806215,182.48734 546.516215,164.74734 574.126215,142.68734 C582.056215,135.84734 590.206215,128.90734 595.946215,120.03734 C585.776215,118.28734 575.406215,117.26734 565.156215,118.94734 C539.366215,119.88734 514.306215,126.58734 489.106215,131.31734 C479.896215,121.97734 471.326215,111.68734 461.126215,103.21734 Z" id="Path"></path>
        </g>
    </g>
</svg>